{"title":"GOON (2011) DVDRip [MKV 6ch AC3][RoB]PR3DATOR RG","uid":7140780,"size":1486563211,"categoryP":"video","categoryS":"movies","magnet":"?xt=urn:btih:3e9cad95051b5aaeb9f7447f11925a0977c22ccd&amp;dn=GOON+%282011%29+DVDRip+%5BMKV+6ch+AC3%5D%5BRoB%5DPR3DATOR+RG&amp;tr=udp%3A%2F%2Ftracker.openbittorrent.com%3A80&amp;tr=udp%3A%2F%2Fopen.demonii.com%3A1337&amp;tr=udp%3A%2F%2Ftracker.coppersurfer.tk%3A6969&amp;tr=udp%3A%2F%2Fexodus.desync.com%3A6969","seeders":0,"leechers":1,"uploader":"BLOVES","files":5,"time":1332995254,"description":" &lt;a href=&quot;http://img705.imageshack.us/img705/5514/mv5bmtcxotqwmtq3mf5bml5.jpg&quot; rel=&quot;nofollow&quot; target=&quot;_NEW&quot;&gt;http://img705.imageshack.us/img705/5514/mv5bmtcxotqwmtq3mf5bml5.jpg&lt;/a&gt;\nComplete name : GOON (2011) DVDRip [MKV 6ch AC3][RoB]PR3DATOR RG\nFormat : Matroska\nFormat version : Version 2\nFile size : 1.37 GiB\nDuration : 1h 31mn\nOverall bit rate : 2 136 Kbps\nWriting application : Lavf51.12.1\nWriting library : Lavf51.12.1\n\nVideo\nID : 1\nFormat : AVC\nFormat/Info : Advanced Video Codec\nFormat profile : &lt;a class=&quot;__cf_email__&quot; href=&quot;/cdn-cgi/l/email-protection&quot; data-cfemail=&quot;8fcdeefceae3e6e1eacfc3bca1bf&quot;&gt;[email&amp;#160;protected]&lt;/a&gt;&lt;script cf-hash='f9e31' type=&quot;text/javascript&quot;&gt;\n/* &lt;![CDATA[ */!function(){try{var t=&quot;currentScript&quot;in document?document.currentScript:function(){for(var t=document.getElementsByTagName(&quot;script&quot;),e=t.length;e--;)if(t[e].getAttribute(&quot;cf-hash&quot;))return t[e]}();if(t&amp;&amp;t.previousSibling){var e,r,n,i,c=t.previousSibling,a=c.getAttribute(&quot;data-cfemail&quot;);if(a){for(e=&quot;&quot;,r=parseInt(a.substr(0,2),16),n=2;a.length-n;n+=2)i=parseInt(a.substr(n,2),16)^r,e+=String.fromCharCode(i);e=document.createTextNode(e),c.parentNode.replaceChild(e,c)}}}catch(u){}}();/* ]]&gt; */&lt;/script&gt;\nFormat settings, CABAC : No\nFormat settings, ReFrames : 5 frames\nFormat settings, GOP : M=1, N=12\nCodec ID : V_MPEG4/ISO/AVC\nDuration : 1h 31mn\nBit rate : 1 902 Kbps\nWidth : 720 pixels\nHeight : 400 pixels\nDisplay aspect ratio : 16:9\nFrame rate mode : Variable\nFrame rate : 25.000 fps\nColor space : YUV\nChroma subsampling : 4:2:0\nBit depth : 8 bits\nScan type : Progressive\nBits/(Pixel*Frame) : 0.264\nStream size : 1.22 GiB (89%)\nLanguage : English\n\nAudio\nID : 2\nFormat : AC-3\nFormat/Info : Audio Coding 3\nMode extension : CM (complete main)\nCodec ID : A_AC3\nDuration : 1h 31mn\nBit rate mode : Constant\nBit rate : 192 Kbps\nChannel(s) : 6 channels\nChannel positions : Front: L C R, Side: L R, LFE\nSampling rate : 44.1 KHz\nBit depth : 16 bits\nCompression mode : Lossy\nStream size : 126 MiB (9%)\nLanguage : English","torrent":{"xt":"urn:btih:3e9cad95051b5aaeb9f7447f11925a0977c22ccd","amp;dn":"GOON+%282011%29+DVDRip+%5BMKV+6ch+AC3%5D%5BRoB%5DPR3DATOR+RG","amp;tr":["udp%3A%2F%2Ftracker.openbittorrent.com%3A80","udp%3A%2F%2Fopen.demonii.com%3A1337","udp%3A%2F%2Ftracker.coppersurfer.tk%3A6969","udp%3A%2F%2Fexodus.desync.com%3A6969"],"infoHash":"3e9cad95051b5aaeb9f7447f11925a0977c22ccd","infoHashBuffer":{"type":"Buffer","data":[62,156,173,149,5,27,90,174,185,247,68,127,17,146,90,9,119,194,44,205]},"announce":[],"urlList":[]}}